[[0.009743999999999999,{"lines":{"0":[["abhsps@COS-PHY50:~/Movies/train1$                                                                                                                                                    ",{}]],"1":[["                                                                                                                                                                                     ",{}]],"2":[["                                                                                                                                                                                     ",{}]],"3":[["                                                                                                                                                                                     ",{}]],"4":[["                                                                                                                                                                                     ",{}]],"5":[["                                                                                                                                                                                     ",{}]],"6":[["                                                                                                                                                                                     ",{}]],"7":[["                                                                                                                                                                                     ",{}]],"8":[["                                                                                                                                                                                     ",{}]],"9":[["                                                                                                                                                                                     ",{}]],"10":[["                                                                                                                                                                                     ",{}]],"11":[["                                                                                                                                                                                     ",{}]],"12":[["                                                                                                                                                                                     ",{}]],"13":[["                                                                                                                                                                                     ",{}]],"14":[["                                                                                                                                                                                     ",{}]],"15":[["                                                                                                                                                                                     ",{}]],"16":[["                                                                                                                                                                                     ",{}]],"17":[["                                                                                                                                                                                     ",{}]],"18":[["                                                                                                                                                                                     ",{}]],"19":[["                                                                                                                                                                                     ",{}]],"20":[["                                                                                                                                                                                     ",{}]],"21":[["                                                                                                                                                                                     ",{}]],"22":[["                                                                                                                                                                                     ",{}]],"23":[["                                                                                                                                                                                     ",{}]],"24":[["                                                                                                                                                                                     ",{}]],"25":[["                                                                                                                                                                                     ",{}]],"26":[["                                                                                                                                                                                     ",{}]],"27":[["                                                                                                                                                                                     ",{}]],"28":[["                                                                                                                                                                                     ",{}]],"29":[["                                                                                                                                                                                     ",{}]],"30":[["                                                                                                                                                                                     ",{}]],"31":[["                                                                                                                                                                                     ",{}]]},"cursor":{"x":34,"y":0,"visible":true}}],[2.651891,{"lines":{"0":[["abhsps@COS-PHY50:~/Movies/train1$ l                                                                                                                                                  ",{}]]},"cursor":{"x":35}}],[0.111843,{"lines":{"0":[["abhsps@COS-PHY50:~/Movies/train1$ ls                                                                                                                                                 ",{}]]},"cursor":{"x":36}}],[0.263715,{"cursor":{"x":0,"y":1}}],[0.003258,{"lines":{"1":[["IMG_2748.JPG    IMG_2754.JPG    IMG_2760.JPG    IMG_2766.JPG    IMG_2772.JPG    IMG_2778.JPG    IMG_2784.JPG    IMG_2790.JPG    IMG_2796.JPG    IMG_2802.JPG    train.mp4            ",{}]],"2":[["IMG_2749.JPG    IMG_2755.JPG    IMG_2761.JPG    IMG_2767.JPG    IMG_2773.JPG    IMG_2779.JPG    IMG_2785.JPG    IMG_2791.JPG    IMG_2797.JPG    IMG_2803.JPG                         ",{}]],"3":[["IMG_2750.JPG    IMG_2756.JPG    IMG_2762.JPG    IMG_2768.JPG    IMG_2774.JPG    IMG_2780.JPG    IMG_2786.JPG    IMG_2792.JPG    IMG_2798.JPG    IMG_2804.JPG                         ",{}]],"4":[["IMG_2751.JPG    IMG_2757.JPG    IMG_2763.JPG    IMG_2769.JPG    IMG_2775.JPG    IMG_2781.JPG    IMG_2787.JPG    IMG_2793.JPG    IMG_2799.JPG    IMG_2805.JPG                         ",{}]],"5":[["IMG_2752.JPG    IMG_2758.JPG    IMG_2764.JPG    IMG_2770.JPG    IMG_2776.JPG    IMG_2782.JPG    IMG_2788.JPG    IMG_2794.JPG    IMG_2800.JPG    IMG_2806.JPG                         ",{}]],"6":[["IMG_2753.JPG    IMG_2759.JPG    IMG_2765.JPG    IMG_2771.JPG    IMG_2777.JPG    IMG_2783.JPG    IMG_2789.JPG    IMG_2795.JPG    IMG_2801.JPG    out.mp4                              ",{}]],"7":[["abhsps@COS-PHY50:~/Movies/train1$                                                                                                                                                    ",{}]]},"cursor":{"x":34,"y":7}}],[2.342281,{"lines":{"7":[["abhsps@COS-PHY50:~/Movies/train1$ ffmp                                                                                                                                               ",{}]]},"cursor":{"x":38}}],[0.002349,{"lines":{"7":[["abhsps@COS-PHY50:~/Movies/train1$ ffmpeg -r 10 -pattern_type glob -i 'IMG_2*.JPG' -c:v libx264 -pix_fmt  yuv420p -r 10 out.mp4                                                       ",{}]]},"cursor":{"x":126}}],[2.220236,{"cursor":{"x":0,"y":8}}],[0.017289,{"lines":{"8":[["ffmpeg version 2.1.4 Copyright (c) 2000-2014 the FFmpeg developers                                                                                                                   ",{}]],"9":[["  built on Mar 23 2014 14:17:49 with Apple LLVM version 5.1 (clang-503.0.38) (based on LLVM 3.4svn)                                                                                  ",{}]],"10":[["  configuration: --prefix=/opt/local --enable-swscale --enable-avfilter --enable-avresample --enable-libmp3lame --enable-libvorbis --enable-libopus --enable-libtheora --enable-libsc",{}]],"11":[["hroedinger --enable-libopenjpeg --enable-libmodplug --enable-libvpx --enable-libspeex --enable-libass --enable-libbluray --enable-gnutls --enable-fontconfig --enable-libfreetype --d",{}]],"12":[["isable-indev=jack --disable-outdev=xv --mandir=/opt/local/share/man --enable-shared --enable-pthreads --cc=/usr/bin/clang --enable-vda --arch=x86_64 --enable-yasm --enable-gpl --ena",{}]],"13":[["ble-postproc --enable-libx264 --enable-libxvid                                                                                                                                       ",{}]]},"cursor":{"y":14}}],[0.009345000000000001,{"lines":{"14":[["  libavutil      52. 48.101 / 52. 48.101                                                                                                                                             ",{}]],"15":[["  libavcodec     55. 39.101 / 55. 39.101                                                                                                                                             ",{}]],"16":[["  libavformat    55. 19.104 / 55. 19.104                                                                                                                                             ",{}]],"17":[["  libavdevice    55.  5.100 / 55.  5.100                                                                                                                                             ",{}]],"18":[["  libavfilter     3. 90.100 /  3. 90.100                                                                                                                                             ",{}]],"19":[["  libavresample   1.  1.  0 /  1.  1.  0                                                                                                                                             ",{}]],"20":[["  libswscale      2.  5.101 /  2.  5.101                                                                                                                                             ",{}]],"21":[["  libswresample   0. 17.104 /  0. 17.104                                                                                                                                             ",{}]],"22":[["  libpostproc    52.  3.100 / 52.  3.100                                                                                                                                             ",{}]],"23":[["Input #0, image2, from 'IMG_2*.JPG':                                                                                                                                                 ",{}]],"24":[["  Duration: 00:00:02.36, start: 0.000000, bitrate: N/A                                                                                                                               ",{}]],"25":[["    Stream #0:0: Video: mjpeg, yuvj422p(pc), 640x480, 25 fps, 25 tbr, 25 tbn, 25 tbc                                                                                                 ",{}]],"26":[["File 'out.mp4' already exists. Overwrite ? [y/N]                                                                                                                                     ",{}]]},"cursor":{"x":49,"y":26}}],[1.7977,{"lines":{"26":[["File 'out.mp4' already exists. Overwrite ? [y/N] y                                                                                                                                   ",{}]]},"cursor":{"x":50}}],[0.424075,{"cursor":{"x":0,"y":27}}],[0.010835,{"lines":{"0":[["  configuration: --prefix=/opt/local --enable-swscale --enable-avfilter --enable-avresample --enable-libmp3lame --enable-libvorbis --enable-libopus --enable-libtheora --enable-libsc",{}]],"1":[["hroedinger --enable-libopenjpeg --enable-libmodplug --enable-libvpx --enable-libspeex --enable-libass --enable-libbluray --enable-gnutls --enable-fontconfig --enable-libfreetype --d",{}]],"2":[["isable-indev=jack --disable-outdev=xv --mandir=/opt/local/share/man --enable-shared --enable-pthreads --cc=/usr/bin/clang --enable-vda --arch=x86_64 --enable-yasm --enable-gpl --ena",{}]],"3":[["ble-postproc --enable-libx264 --enable-libxvid                                                                                                                                       ",{}]],"4":[["  libavutil      52. 48.101 / 52. 48.101                                                                                                                                             ",{}]],"5":[["  libavcodec     55. 39.101 / 55. 39.101                                                                                                                                             ",{}]],"6":[["  libavformat    55. 19.104 / 55. 19.104                                                                                                                                             ",{}]],"7":[["  libavdevice    55.  5.100 / 55.  5.100                                                                                                                                             ",{}]],"8":[["  libavfilter     3. 90.100 /  3. 90.100                                                                                                                                             ",{}]],"9":[["  libavresample   1.  1.  0 /  1.  1.  0                                                                                                                                             ",{}]],"10":[["  libswscale      2.  5.101 /  2.  5.101                                                                                                                                             ",{}]],"11":[["  libswresample   0. 17.104 /  0. 17.104                                                                                                                                             ",{}]],"12":[["  libpostproc    52.  3.100 / 52.  3.100                                                                                                                                             ",{}]],"13":[["Input #0, image2, from 'IMG_2*.JPG':                                                                                                                                                 ",{}]],"14":[["  Duration: 00:00:02.36, start: 0.000000, bitrate: N/A                                                                                                                               ",{}]],"15":[["    Stream #0:0: Video: mjpeg, yuvj422p(pc), 640x480, 25 fps, 25 tbr, 25 tbn, 25 tbc                                                                                                 ",{}]],"16":[["File 'out.mp4' already exists. Overwrite ? [y/N] y                                                                                                                                   ",{}]],"17":[["[swscaler @ 0x7fea69800600] ",{"fg":4,"bold":true}],["deprecated pixel format used, make sure you did set range correctly",{"fg":3}],["                                                                                      ",{}]],"18":[["[libx264 @ 0x7fea69830200] ",{"fg":6,"bold":true}],["using cpu capabilities: MMX2 SSE2Fast SSSE3 SSE4.2 AVX AVX2 FMA3 LZCNT BMI2                                                                               ",{}]],"19":[["[libx264 @ 0x7fea69830200] ",{"fg":6,"bold":true}],["profile High, level 2.2                                                                                                                                   ",{}]],"20":[["[libx264 @ 0x7fea69830200] ",{"fg":6,"bold":true}],["264 - core 142 - H.264/MPEG-4 AVC codec - Copyleft 2003-2014 - http://www.videolan.org/x264.html - options: cabac=1 ref=3 deblock=1:0:0 analyse=0x3:0x113 ",{}]],"21":[["me=hex subme=7 psy=1 psy_rd=1.00:0.00 mixed_ref=1 me_range=16 chroma_me=1 trellis=1 8x8dct=1 cqm=0 deadzone=21,11 fast_pskip=1 chroma_qp_offset=-2 threads=6 lookahead_threads=1 slic",{}]],"22":[["ed_threads=0 nr=0 decimate=1 interlaced=0 bluray_compat=0 constrained_intra=0 bframes=3 b_pyramid=2 b_adapt=1 b_bias=0 direct=1 weightb=1 open_gop=0 weightp=2 keyint=250 keyint_min=",{}]],"23":[["10 scenecut=40 intra_refresh=0 rc_lookahead=40 rc=crf mbtree=1 crf=23.0 qcomp=0.60 qpmin=0 qpmax=69 qpstep=4 ip_ratio=1.40 aq=1:1.00                                                 ",{}]],"24":[["Output #0, mp4, to 'out.mp4':                                                                                                                                                        ",{}]],"25":[["  Metadata:                                                                                                                                                                          ",{}]],"26":[["    encoder         : Lavf55.19.104                                                                                                                                                  ",{}]],"27":[["    Stream #0:0: Video: h264 (libx264) ([33][0][0][0] / 0x0021), yuv420p, 640x480, q=-1--1, 10240 tbn, 10 tbc                                                                        ",{}]],"28":[["Stream mapping:                                                                                                                                                                      ",{}]],"29":[["  Stream #0:0 -> #0:0 (mjpeg -> libx264)                                                                                                                                             ",{}]],"30":[["Press [q] to stop, [?] for help                                                                                                                                                      ",{}]]},"cursor":{"y":31}}],[1.144141,{"lines":{"0":[["isable-indev=jack --disable-outdev=xv --mandir=/opt/local/share/man --enable-shared --enable-pthreads --cc=/usr/bin/clang --enable-vda --arch=x86_64 --enable-yasm --enable-gpl --ena",{}]],"1":[["ble-postproc --enable-libx264 --enable-libxvid                                                                                                                                       ",{}]],"2":[["  libavutil      52. 48.101 / 52. 48.101                                                                                                                                             ",{}]],"3":[["  libavcodec     55. 39.101 / 55. 39.101                                                                                                                                             ",{}]],"4":[["  libavformat    55. 19.104 / 55. 19.104                                                                                                                                             ",{}]],"5":[["  libavdevice    55.  5.100 / 55.  5.100                                                                                                                                             ",{}]],"6":[["  libavfilter     3. 90.100 /  3. 90.100                                                                                                                                             ",{}]],"7":[["  libavresample   1.  1.  0 /  1.  1.  0                                                                                                                                             ",{}]],"8":[["  libswscale      2.  5.101 /  2.  5.101                                                                                                                                             ",{}]],"9":[["  libswresample   0. 17.104 /  0. 17.104                                                                                                                                             ",{}]],"10":[["  libpostproc    52.  3.100 / 52.  3.100                                                                                                                                             ",{}]],"11":[["Input #0, image2, from 'IMG_2*.JPG':                                                                                                                                                 ",{}]],"12":[["  Duration: 00:00:02.36, start: 0.000000, bitrate: N/A                                                                                                                               ",{}]],"13":[["    Stream #0:0: Video: mjpeg, yuvj422p(pc), 640x480, 25 fps, 25 tbr, 25 tbn, 25 tbc                                                                                                 ",{}]],"14":[["File 'out.mp4' already exists. Overwrite ? [y/N] y                                                                                                                                   ",{}]],"15":[["[swscaler @ 0x7fea69800600] ",{"fg":4,"bold":true}],["deprecated pixel format used, make sure you did set range correctly",{"fg":3}],["                                                                                      ",{}]],"16":[["[libx264 @ 0x7fea69830200] ",{"fg":6,"bold":true}],["using cpu capabilities: MMX2 SSE2Fast SSSE3 SSE4.2 AVX AVX2 FMA3 LZCNT BMI2                                                                               ",{}]],"17":[["[libx264 @ 0x7fea69830200] ",{"fg":6,"bold":true}],["profile High, level 2.2                                                                                                                                   ",{}]],"18":[["[libx264 @ 0x7fea69830200] ",{"fg":6,"bold":true}],["264 - core 142 - H.264/MPEG-4 AVC codec - Copyleft 2003-2014 - http://www.videolan.org/x264.html - options: cabac=1 ref=3 deblock=1:0:0 analyse=0x3:0x113 ",{}]],"19":[["me=hex subme=7 psy=1 psy_rd=1.00:0.00 mixed_ref=1 me_range=16 chroma_me=1 trellis=1 8x8dct=1 cqm=0 deadzone=21,11 fast_pskip=1 chroma_qp_offset=-2 threads=6 lookahead_threads=1 slic",{}]],"20":[["ed_threads=0 nr=0 decimate=1 interlaced=0 bluray_compat=0 constrained_intra=0 bframes=3 b_pyramid=2 b_adapt=1 b_bias=0 direct=1 weightb=1 open_gop=0 weightp=2 keyint=250 keyint_min=",{}]],"21":[["10 scenecut=40 intra_refresh=0 rc_lookahead=40 rc=crf mbtree=1 crf=23.0 qcomp=0.60 qpmin=0 qpmax=69 qpstep=4 ip_ratio=1.40 aq=1:1.00                                                 ",{}]],"22":[["Output #0, mp4, to 'out.mp4':                                                                                                                                                        ",{}]],"23":[["  Metadata:                                                                                                                                                                          ",{}]],"24":[["    encoder         : Lavf55.19.104                                                                                                                                                  ",{}]],"25":[["    Stream #0:0: Video: h264 (libx264) ([33][0][0][0] / 0x0021), yuv420p, 640x480, q=-1--1, 10240 tbn, 10 tbc                                                                        ",{}]],"26":[["Stream mapping:                                                                                                                                                                      ",{}]],"27":[["  Stream #0:0 -> #0:0 (mjpeg -> libx264)                                                                                                                                             ",{}]],"28":[["Press [q] to stop, [?] for help                                                                                                                                                      ",{}]],"29":[["frame=   59 fps= 52 q=-1.0 Lsize=     439kB time=00:00:05.70 bitrate= 630.3kbits/s                                                                                                   ",{}]],"30":[["video:437kB audio:0kB subtitle:0 global headers:0kB muxing overhead 0.334448%                                                                                                        ",{}]]}}],[0.008757000000000001,{"lines":{"0":[["[libx264 @ 0x7fea69830200] ",{"fg":6,"bold":true}],["264 - core 142 - H.264/MPEG-4 AVC codec - Copyleft 2003-2014 - http://www.videolan.org/x264.html - options: cabac=1 ref=3 deblock=1:0:0 analyse=0x3:0x113 ",{}]],"1":[["me=hex subme=7 psy=1 psy_rd=1.00:0.00 mixed_ref=1 me_range=16 chroma_me=1 trellis=1 8x8dct=1 cqm=0 deadzone=21,11 fast_pskip=1 chroma_qp_offset=-2 threads=6 lookahead_threads=1 slic",{}]],"2":[["ed_threads=0 nr=0 decimate=1 interlaced=0 bluray_compat=0 constrained_intra=0 bframes=3 b_pyramid=2 b_adapt=1 b_bias=0 direct=1 weightb=1 open_gop=0 weightp=2 keyint=250 keyint_min=",{}]],"3":[["10 scenecut=40 intra_refresh=0 rc_lookahead=40 rc=crf mbtree=1 crf=23.0 qcomp=0.60 qpmin=0 qpmax=69 qpstep=4 ip_ratio=1.40 aq=1:1.00                                                 ",{}]],"4":[["Output #0, mp4, to 'out.mp4':                                                                                                                                                        ",{}]],"5":[["  Metadata:                                                                                                                                                                          ",{}]],"6":[["    encoder         : Lavf55.19.104                                                                                                                                                  ",{}]],"7":[["    Stream #0:0: Video: h264 (libx264) ([33][0][0][0] / 0x0021), yuv420p, 640x480, q=-1--1, 10240 tbn, 10 tbc                                                                        ",{}]],"8":[["Stream mapping:                                                                                                                                                                      ",{}]],"9":[["  Stream #0:0 -> #0:0 (mjpeg -> libx264)                                                                                                                                             ",{}]],"10":[["Press [q] to stop, [?] for help                                                                                                                                                      ",{}]],"11":[["frame=   59 fps= 52 q=-1.0 Lsize=     439kB time=00:00:05.70 bitrate= 630.3kbits/s                                                                                                   ",{}]],"12":[["video:437kB audio:0kB subtitle:0 global headers:0kB muxing overhead 0.334448%                                                                                                        ",{}]],"13":[["[libx264 @ 0x7fea69830200] ",{"fg":6,"bold":true}],["frame I:1     Avg QP:19.77  size: 32769                                                                                                                   ",{}]],"14":[["[libx264 @ 0x7fea69830200] ",{"fg":6,"bold":true}],["frame P:25    Avg QP:20.80  size: 11673                                                                                                                   ",{}]],"15":[["[libx264 @ 0x7fea69830200] ",{"fg":6,"bold":true}],["frame B:33    Avg QP:22.40  size:  3706                                                                                                                   ",{}]],"16":[["[libx264 @ 0x7fea69830200] ",{"fg":6,"bold":true}],["consecutive B-frames:  5.1% 54.2% 20.3% 20.3%                                                                                                             ",{}]],"17":[["[libx264 @ 0x7fea69830200] ",{"fg":6,"bold":true}],["mb I  I16..4:  2.8% 87.0% 10.2%                                                                                                                           ",{}]],"18":[["[libx264 @ 0x7fea69830200] ",{"fg":6,"bold":true}],["mb P  I16..4:  0.7% 11.0%  2.4%  P16..4: 53.6% 17.2% 11.3%  0.0%  0.0%    skip: 3.8%                                                                      ",{}]],"19":[["[libx264 @ 0x7fea69830200] ",{"fg":6,"bold":true}],["mb B  I16..4:  0.1%  1.3%  0.5%  B16..8: 45.5%  6.9%  1.7%  direct: 8.1%  skip:35.7%  L0:52.4% L1:41.0% BI: 6.6%                                          ",{}]],"20":[["[libx264 @ 0x7fea69830200] ",{"fg":6,"bold":true}],["8x8 transform intra:78.3% inter:78.4%                                                                                                                     ",{}]],"21":[["[libx264 @ 0x7fea69830200] ",{"fg":6,"bold":true}],["coded y,uvDC,uvAC intra: 79.4% 91.5% 59.7% inter: 33.3% 57.7% 3.4%                                                                                        ",{}]],"22":[["[libx264 @ 0x7fea69830200] ",{"fg":6,"bold":true}],["i16 v,h,dc,p:  8% 12%  6% 73%                                                                                                                             ",{}]],"23":[["[libx264 @ 0x7fea69830200] ",{"fg":6,"bold":true}],["i8 v,h,dc,ddl,ddr,vr,hd,vl,hu: 16% 17% 26%  5%  7%  6%  9%  6%  7%                                                                                        ",{}]],"24":[["[libx264 @ 0x7fea69830200] ",{"fg":6,"bold":true}],["i4 v,h,dc,ddl,ddr,vr,hd,vl,hu: 19% 23% 15%  6%  7%  6% 11%  6%  6%                                                                                        ",{}]],"25":[["[libx264 @ 0x7fea69830200] ",{"fg":6,"bold":true}],["i8c dc,h,v,p: 51% 22% 22%  5%                                                                                                                             ",{}]],"26":[["[libx264 @ 0x7fea69830200] ",{"fg":6,"bold":true}],["Weighted P-Frames: Y:32.0% UV:20.0%                                                                                                                       ",{}]],"27":[["[libx264 @ 0x7fea69830200] ",{"fg":6,"bold":true}],["ref P L0: 45.1% 26.9% 16.2%  9.6%  2.2%                                                                                                                   ",{}]],"28":[["[libx264 @ 0x7fea69830200] ",{"fg":6,"bold":true}],["ref B L0: 76.9% 21.8%  1.3%                                                                                                                               ",{}]],"29":[["[libx264 @ 0x7fea69830200] ",{"fg":6,"bold":true}],["ref B L1: 94.9%  5.1%                                                                                                                                     ",{}]],"30":[["[libx264 @ 0x7fea69830200] ",{"fg":6,"bold":true}],["kb/s:605.95                                                                                                                                               ",{}]],"31":[["abhsps@COS-PHY50:~/Movies/train1$                                                                                                                                                    ",{}]]},"cursor":{"x":34}}],[6.560312,{"lines":{"0":[["me=hex subme=7 psy=1 psy_rd=1.00:0.00 mixed_ref=1 me_range=16 chroma_me=1 trellis=1 8x8dct=1 cqm=0 deadzone=21,11 fast_pskip=1 chroma_qp_offset=-2 threads=6 lookahead_threads=1 slic",{}]],"1":[["ed_threads=0 nr=0 decimate=1 interlaced=0 bluray_compat=0 constrained_intra=0 bframes=3 b_pyramid=2 b_adapt=1 b_bias=0 direct=1 weightb=1 open_gop=0 weightp=2 keyint=250 keyint_min=",{}]],"2":[["10 scenecut=40 intra_refresh=0 rc_lookahead=40 rc=crf mbtree=1 crf=23.0 qcomp=0.60 qpmin=0 qpmax=69 qpstep=4 ip_ratio=1.40 aq=1:1.00                                                 ",{}]],"3":[["Output #0, mp4, to 'out.mp4':                                                                                                                                                        ",{}]],"4":[["  Metadata:                                                                                                                                                                          ",{}]],"5":[["    encoder         : Lavf55.19.104                                                                                                                                                  ",{}]],"6":[["    Stream #0:0: Video: h264 (libx264) ([33][0][0][0] / 0x0021), yuv420p, 640x480, q=-1--1, 10240 tbn, 10 tbc                                                                        ",{}]],"7":[["Stream mapping:                                                                                                                                                                      ",{}]],"8":[["  Stream #0:0 -> #0:0 (mjpeg -> libx264)                                                                                                                                             ",{}]],"9":[["Press [q] to stop, [?] for help                                                                                                                                                      ",{}]],"10":[["frame=   59 fps= 52 q=-1.0 Lsize=     439kB time=00:00:05.70 bitrate= 630.3kbits/s                                                                                                   ",{}]],"11":[["video:437kB audio:0kB subtitle:0 global headers:0kB muxing overhead 0.334448%                                                                                                        ",{}]],"12":[["[libx264 @ 0x7fea69830200] ",{"fg":6,"bold":true}],["frame I:1     Avg QP:19.77  size: 32769                                                                                                                   ",{}]],"13":[["[libx264 @ 0x7fea69830200] ",{"fg":6,"bold":true}],["frame P:25    Avg QP:20.80  size: 11673                                                                                                                   ",{}]],"14":[["[libx264 @ 0x7fea69830200] ",{"fg":6,"bold":true}],["frame B:33    Avg QP:22.40  size:  3706                                                                                                                   ",{}]],"15":[["[libx264 @ 0x7fea69830200] ",{"fg":6,"bold":true}],["consecutive B-frames:  5.1% 54.2% 20.3% 20.3%                                                                                                             ",{}]],"16":[["[libx264 @ 0x7fea69830200] ",{"fg":6,"bold":true}],["mb I  I16..4:  2.8% 87.0% 10.2%                                                                                                                           ",{}]],"17":[["[libx264 @ 0x7fea69830200] ",{"fg":6,"bold":true}],["mb P  I16..4:  0.7% 11.0%  2.4%  P16..4: 53.6% 17.2% 11.3%  0.0%  0.0%    skip: 3.8%                                                                      ",{}]],"18":[["[libx264 @ 0x7fea69830200] ",{"fg":6,"bold":true}],["mb B  I16..4:  0.1%  1.3%  0.5%  B16..8: 45.5%  6.9%  1.7%  direct: 8.1%  skip:35.7%  L0:52.4% L1:41.0% BI: 6.6%                                          ",{}]],"19":[["[libx264 @ 0x7fea69830200] ",{"fg":6,"bold":true}],["8x8 transform intra:78.3% inter:78.4%                                                                                                                     ",{}]],"20":[["[libx264 @ 0x7fea69830200] ",{"fg":6,"bold":true}],["coded y,uvDC,uvAC intra: 79.4% 91.5% 59.7% inter: 33.3% 57.7% 3.4%                                                                                        ",{}]],"21":[["[libx264 @ 0x7fea69830200] ",{"fg":6,"bold":true}],["i16 v,h,dc,p:  8% 12%  6% 73%                                                                                                                             ",{}]],"22":[["[libx264 @ 0x7fea69830200] ",{"fg":6,"bold":true}],["i8 v,h,dc,ddl,ddr,vr,hd,vl,hu: 16% 17% 26%  5%  7%  6%  9%  6%  7%                                                                                        ",{}]],"23":[["[libx264 @ 0x7fea69830200] ",{"fg":6,"bold":true}],["i4 v,h,dc,ddl,ddr,vr,hd,vl,hu: 19% 23% 15%  6%  7%  6% 11%  6%  6%                                                                                        ",{}]],"24":[["[libx264 @ 0x7fea69830200] ",{"fg":6,"bold":true}],["i8c dc,h,v,p: 51% 22% 22%  5%                                                                                                                             ",{}]],"25":[["[libx264 @ 0x7fea69830200] ",{"fg":6,"bold":true}],["Weighted P-Frames: Y:32.0% UV:20.0%                                                                                                                       ",{}]],"26":[["[libx264 @ 0x7fea69830200] ",{"fg":6,"bold":true}],["ref P L0: 45.1% 26.9% 16.2%  9.6%  2.2%                                                                                                                   ",{}]],"27":[["[libx264 @ 0x7fea69830200] ",{"fg":6,"bold":true}],["ref B L0: 76.9% 21.8%  1.3%                                                                                                                               ",{}]],"28":[["[libx264 @ 0x7fea69830200] ",{"fg":6,"bold":true}],["ref B L1: 94.9%  5.1%                                                                                                                                     ",{}]],"29":[["[libx264 @ 0x7fea69830200] ",{"fg":6,"bold":true}],["kb/s:605.95                                                                                                                                               ",{}]],"30":[["abhsps@COS-PHY50:~/Movies/train1$ exit                                                                                                                                               ",{}]],"31":[["                                                                                                                                                                                     ",{}]]},"cursor":{"x":0}}]]